<svg id="esbcWgrzw8P1" xmlns="http://www.w3.org/2000/svg" xmlns:xlink="http://www.w3.org/1999/xlink" viewBox="0 0 24 24" shape-rendering="geometricPrecision" text-rendering="geometricPrecision"><g><path d="M0,0h24v24h-24L0,0Z" fill="none"/><path d="M12,13c2.3955,0,4.5753.6937,6.1777,1.6715.8009.4887,1.4844,1.0648,1.9783,1.69.486.6152.844,1.3515.844,2.1385c0,.8449-.4111,1.5111-1.0027,1.9859-.5605.45-1.2991.7477-2.0845.9557C16.3353,21.8593,14.229,22,12,22s-4.33534-.1407-5.91284-.5584c-.78534-.208-1.52392-.5057-2.0845-.9557C3.41114,20.0111,3,19.3449,3,18.5c0-.787.35805-1.5233.84397-2.1385.49391-.6252,1.17746-1.2013,1.9783-1.69C7.42467,13.6937,9.60453,13,12,13ZM12,2c2.7614,0,5,2.23858,5,5s-2.2386,5-5,5-5-2.23858-5-5s2.23858-5,5-5Z" fill="#5d89f8"/></g></svg>
