<svg id="eUryMHeV4Sc1" xmlns="http://www.w3.org/2000/svg" xmlns:xlink="http://www.w3.org/1999/xlink" viewBox="0 0 24 24" shape-rendering="geometricPrecision" text-rendering="geometricPrecision" project-id="e5039180d1cd4f3c8af841b0e50043d2" export-id="f2363f61166841d69547812a5db34e71" cached="false"><path d="M3,15c0-2.8089,0-4.2134.67412-5.22228.29184-.43676.66684-.81176,1.1036-1.1036C5.78661,8,7.19108,8,10,8h4c2.8089,0,4.2134,0,5.2223.67412.4367.29184.8117.66684,1.1036,1.1036C21,10.7866,21,12.1911,21,15s0,4.2134-.6741,5.2223c-.2919.4367-.6669.8117-1.1036,1.1036C18.2134,22,16.8089,22,14,22h-4c-2.80892,0-4.21339,0-5.22228-.6741-.43676-.2919-.81176-.6669-1.1036-1.1036C3,19.2134,3,17.8089,3,15Z" fill="none" stroke="#000" stroke-width="1.5" stroke-linecap="round" stroke-linejoin="round"/><path d="M19,8c-.0179-1.23978-.11-1.94267-.5818-2.41421C17.8321,5,16.8888,5,15.0022,5h-6.00437c-1.88665,0-2.82997,0-3.41607.58579C5.10996,6.05733,5.01794,6.76022,5,8" fill="none" stroke="#000" stroke-width="1.5" stroke-linecap="round" stroke-linejoin="round"/><path d="M17,5c0-.93188,0-1.39782-.1522-1.76537-.203-.49005-.5924-.8794-1.0824-1.08239C15.3978,2,14.9319,2,14,2h-4c-.93188,0-1.39782,0-1.76537.15224-.49005.20299-.8794.59234-1.08239,1.08239C7,3.60218,7,4.06812,7,5" fill="none" stroke="#000" stroke-width="1.5" stroke-linecap="round" stroke-linejoin="round"/><g transform="translate(.000001 0)"><polygon points="-0.251854,-4.907163 4.403455,0 -0.251854,4.907163 -4.907163,0 -0.251854,-4.907163" transform="matrix(.90864 0 0 0.862032 12.228845 15)" stroke-width="0"/><polygon points="-1.863328,-4.907163 0.777982,-2.007038 -4.504638,-2.007038 -1.863328,-4.907163" transform="matrix(.003986-.908631 0.862024 0.003781 13.727013 13.319994)" fill="#d2dbed" stroke-width="0"/></g></svg>
