<svg id="eomQ3acSReT1" xmlns="http://www.w3.org/2000/svg" xmlns:xlink="http://www.w3.org/1999/xlink" viewBox="0 0 1600 1500" shape-rendering="geometricPrecision" text-rendering="geometricPrecision" project-id="56109e6e601942e19bad9c7b12fb20fa" export-id="49076c25d3c0458bb4ecf5e03effc87d" cached="false"><ellipse rx="43.195581" ry="44.651127" transform="matrix(1.041694 0 0 0.998618 705.955172 574.89976)" fill="none" stroke="#ababab" stroke-width="10"/><g transform="matrix(.1 0 0-.1-186.481553 1896.526446)"><path d="M11344,10431c-57-26-87-72-92-141-5-68,12-107,63-146c68-51,168-42,224,21c66,75,62,168-9,236-55,52-116,62-186,30Zm141-41c34-21,65-73,65-109c0-40-28-90-62-111-70-42-153-17-189,57-17,35-18,48-10,80c10,38,50,85,81,96c33,12,84,6,115-13Z"/><path d="M8592,15448c-7-7-12-24-12-39c0-24-5-28-31-31-64-6-64-70-1-76c26-3,31-8,34-34c6-63,70-63,76,1c3,26,7,31,31,31c31,0,51,16,51,42c0,20-28,38-59,38-16,0-21,6-21,28c0,31-16,52-40,52-9,0-21-5-28-12Z"/><path d="M8910,13699c-110-21-234-111-292-210-69-118-78-289-21-411c109-233,373-328,603-216c181,88,284,303,239,497-54,235-290,387-529,340Zm239-48c147-56,253-196,268-355c20-213-138-412-355-446-172-28-358,72-438,235-27,56-29,68-29,175c0,109,2,118,32,181c53,109,153,190,276,224c66,19,177,12,246-14Z" transform="translate(-80-50)"/><path d="M8356,12414c-20-19-20-38-2-53c9-8,198-10,687-9l674,3l3,23c8,54,33,52-684,52-589,0-664-2-678-16Z"/><path d="M9018,11880c-10-29-14-31-41-26-36,7-57-8-57-41c0-18,8-27,31-35c28-10,30-14,25-43-12-61,46-76,74-19c13,27,18,30,42,23c38-10,63,10,54,44-4,17-15,27-33,31-25,6-28,11-28,49c0,39-2,42-28,45-23,3-29-2-39-28Z"/><path d="M4894,11816c-3-8-4-23-2-33c3-17,51-18,1085-21l1083-2l6,24c3,14,3,30-1,35-4,8-338,11-1086,11-931,0-1080-2-1085-14Z"/><path d="M4895.890766,11822.267571c-3-8-4-23-2-33c3-17,51-18,1085-21l1083-2l6,24c3,14,3,30-1,35-4,8-338,11-1086,11-931,0-1080-2-1085-14Z" transform="matrix(.748746 0.60225-.626757 0.779215 10950.399799-3884.849503)" fill="rgba(0,0,0,0.39)" stroke-linecap="round" stroke-linejoin="round"/><path d="M4890.2795,11822.267571c-3-8-4-23-2-33c3-17,51-18,1085-21l1083-2l6,24c3,14,3,30-1,35-4,8-338,11-1086,11-931,0-1080-2-1085-14Z" transform="matrix(.442532 0.355948-.626757 0.779215 13471.747355-2454.049826)" fill="rgba(0,0,0,0.39)" stroke-linecap="round" stroke-linejoin="round"/><path d="M4890.2795,11822.267571c-3-8-4-23-2-33c3-17,51-18,1085-21l1083-2l6,24c3,14,3,30-1,35-4,8-338,11-1086,11-931,0-1080-2-1085-14Z" transform="matrix(.442532 0.355948-.626757 0.779215 12685.94906-2012.035151)" fill="rgba(0,0,0,0.39)" stroke-linecap="round" stroke-linejoin="round"/><path d="M4897.696133,11816c-3-8-4-23-2-33c3-17,51-18,1085-21l1083-2l6,24c3,14,3,30-1,35-4,8-338,11-1086,11-931,0-1080-2-1085-14Z" transform="matrix(1.586328 0 0 1-2150.330068-764.375)" stroke-linecap="square"/><path d="M4887.831328,11816c-3-8-4-23-2-33c3-17,51-18,1085-21l1083-2l6,24c3,14,3,30-1,35-4,8-338,11-1086,11-931,0-1080-2-1085-14Z" transform="matrix(.61848 0 0 1 7299.630267-769.8899)" stroke-linecap="square"/><path d="M4900.363626,11816c-3-8-4-23-2-33c3-17,51-18,1085-21l1083-2l6,24c3,14,3,30-1,35-4,8-338,11-1086,11-931,0-1080-2-1085-14Z" transform="matrix(2.749992 0 0 1-7867.37299-4073.21295)" stroke-linecap="square"/><path d="M4904.025388,11806.000076c-3-8-4-23-2-33c3-17,51-18,1085-21l1083-2l6,24c3,14,3,30-1,35-4,8-338,11-1086,11-931,0-1080-2-1085-14Z" transform="matrix(-.006024-1.540386 0.999992-.003911-6124.625541 18655.748331)"/><path d="M4904.067442,11806.000076c-3-8-4-23-2-33c3-17,51-18,1085-21l1083-2l6,24c3,14,3,30-1,35-4,8-338,11-1086,11-931,0-1080-2-1085-14Z" transform="matrix(-.002268-.579869 0.999992-.003911-144.04844 11837.405424)"/><path d="M4904.309823,11806.000076c-3-8-4-23-2-33c3-17,51-18,1085-21l1083-2l6,24c3,14,3,30-1,35-4,8-338,11-1086,11-931,0-1080-2-1085-14Z" transform="matrix(-.000494-.126226 0.999992-.003911-107.680515 11720.244955)" stroke-linecap="round"/><path d="M4780,10810v-150h150h150v150v150h-150-150v-150Zm268-2l-3-113-112-3-113-3v116v115h115h116l-3-112Z"/><path d="M14991,10692c-6-11-6-24,0-35c9-16,78-17,1089-17c1078,0,1079,0,1085,20c17,52,65,50-1091,50-1018,0-1074-1-1083-18Z"/><path d="M4862,9668c-7-7-12-24-12-39c0-24-5-28-31-31-64-6-64-70,0-76c26-3,31-7,31-31c0-31,16-51,42-51c19,0,38,28,38,59c0,15,8,20,31,23c18,2,37,11,43,21c16,25-4,51-43,55-26,3-31,7-31,31c0,30-16,51-40,51-9,0-21-5-28-12Z" transform="translate(-2.17269 0)"/><path d="M4834.657009,10102.68663c-39.581063,5.217901,19.490652-359.043132,0-370-94.122529-52.911938-122.732094,212.959473-149.505376,226.191493-227.099131,89.318584-.212048-359.147131,149.505376-401.191493c20-40,20-42.68663,20-66.68663c0-31,16-51,42-51c19,0,39.899857-9.998955,69,.68663c74.049154-15.56952,3.267156,292.784475,85.31999,365c20.148788,17.733151,105.929021,120.06342,147.101711,247.31599c26.365295,138.856835,10.635536,209.02179-64.650183,203.289505-43.155152-.279951-51.2927-18.439716-51.2927-67.439716-6.076472-79.432123-116.478818-383.165779-116.478818-145.913209c6.48952,39.734271-31.454178,118.079699-65.50732,103-22.195273,7.697242-69.990652-29.54542-65.49268-43.25257Z" transform="matrix(1.871611 0 0 2.0611-4578.781329-12010.2437)"/><path d="M2752,7298c-16-16-15-33,4-52c14-14,78-16,553-16c581,0,567-1,559,52l-3,23-550,3c-420,2-554-1-563-10Z"/><path d="M15043,7158l-40-133l128-3c71-1,187-1,257,0l128,3-40,133-40,132h-176-177l-40-132Z"/><path d="M10650,6885v-155h150h150v155v155h-150-150v-155Zm270,0v-115h-115-115v115v115h115h115v-115Z"/><path d="M9842,7018c-6-6-12-21-12-31c0-16-5-18-34-13-24,5-39,2-50-9-19-19-19-21-6-45c5-10,21-21,34-24c22-5,25-10,19-36-12-61,48-84,72-28c12,29,17,32,48,30c27-3,38,1,47,17c8,17,7,24-10,41-11,11-26,20-34,20-11,0-14,11-13,43c2,38,0,42-23,45-14,2-31-3-38-10Z"/><path d="M14917,6743c-2-5-19-57-36-116-18-60-35-115-38-123-4-12,55-14,416-14c332,0,420,3,416,13-2,6-20,65-40,130l-36,117h-339c-186,0-341-3-343-7Z"/><path d="M9405,11065c-5-2-22-6-38-9-41-9-105-72-117-115-16-56-230-1302-230-1338c0-64,50-139,109-162c53-21,2395-423,2439-418c55,6,114,46,136,92c10,20,67,322,133,698c105,606,114,666,104,707-15,58-70,114-125,129-31,9-2236,393-2376,415-14,2-29,2-35,1Zm1195-260c652-113,1200-212,1218-220c35-16,72-67,72-100c0-18-213-1260-225-1312-9-38-54-82-91-89-36-7-176,11-204,26-9,5-90,168-180,364-91,196-168,355-171,353-4-1-71-60-149-132-78-71-145-131-149-133-3-1-101,201-216,449-116,248-213,452-216,454-4,3-474-423-1065-966-19-18-25-18-60-7-45,15-84,66-84,112c0,65,222,1311,239,1341c13,24,70,65,91,65c2,0,538-92,1190-205Zm-40-1004c155-332,279-605,276-608-4-5-1577,265-1584,272-2,1,228,214,510,473c282,258,514,469,515,469c0-1,128-274,283-606Zm604-361c82-177,146-323,142-327-7-7-383,55-405,67-16,8-163,319-159,336c4,15,250,243,263,243c6,0,77-143,159-319Z" transform="translate(-80 0)"/><path d="M13750,16035v-325h-985c-784,0-985-3-985-13c0-6-146-158-325-337s-325-333-325-342c0-10,9-22,19-28c13-7,440-10,1310-10h1291v-4310-4310h-284-284l-6,28c-12,65-18,118-21,190-2,42-5,84-8,92s-11,41-17,73l-11,57h-45-44v1353v1352h-40-40v-1352-1352l-47-3c-58-4-55,4-79-233-9-93-21-176-27-183-11-14-44-15-1675-19l-1033-3l21,40c11,21,20,55,20,75c0,44-32,110-63,127-16,9-104,14-322,18l-300,5-17,70c-23,95-57,315-65,425l-6,90h229c457,0,2012,21,2145,29c122,7,141,11,190,37c63,34,112,95,134,167c17,53,20,79,55,477c62,695,71,1235,40,2290-26,857-32,1008-42,1043-15,49-70,112-122,140-41,22-45,22-592,25l-552,3-6,39c-8,49-49,98-103,122-41,18-43,21-43,61c1,41,3,43,53,67c57,27,93,71,103,126c15,82-24,156-103,194l-52,25-1,1278c0,1270,3,1577-17,1577s-23-307-23-1579v-1279l-31-7c-36-8-94-57-115-96-18-36-18-122,0-158c21-39,79-88,115-96c29-6,30-8,33-73c3-66,3-66,35-73c48-9,83-36,99-74c8-19,14-39,14-45c0-15-223-13-238,2-9,9-17,9-36-1-19-11-491-13-2502-10-2403,4-2480,3-2514-15-88-47-129-113-141-231-5-44-13-258-19-475-12-475-1-1166,35-2390c30-969,22-902,105-988s109-96,244-102l121-5l3-414c1-286,6-418,13-428c10-11-61-13-420-13h-432l25,23c23,20,32,56,98,402c66,341,75,380,93,383c49,9,55,27,55,159c0,174,17,163-261,163-128,0-228.547915,8.657285-239,10s-19.936116-3.043019-24,1c-4-5-150-10-343-10-409-1-377,11-381-149-3-116,6-150,46-167c13-5,25-19,28-30c2-11,36-182,74-380c64-331,72-362,95-383l26-22h-1155c-1132,0-1156,0-1166-19-13-25-13-27,6-45c14-15,754-16,7994-16s7980,1,7994,16c19,18,19,20,6,45-11,19-41,19-1750,19h-1740v4310v4310h645h645v365v365h-645-645l-2,323-3,322-372,3-373,2v-325Zm487,128l-117-118-117,118-118,117h235h235l-118-117Zm-284-51l117-117-120-120-120-120v238c0,130,1,237,3,237c1,0,55-53,120-118Zm467-117c0-129-3-235-7-235-12,0-233,223-233,235c0,11,221,235,232,235c5,0,8-106,8-235Zm-180-170l115-115h-228c-125,0-227,3-227,7c0,9,212,223,220,223c3,0,57-52,120-115Zm-1860-188c0-1-53-55-118-120l-117-117-120,120-120,120h238c130,0,237-1,237-3Zm660,0c0-1-53-55-118-120l-117-117-120,120-120,120h238c130,0,237-1,237-3Zm650-5c0-4-52-59-115-122l-115-115-123,123-122,122h238c130,0,237-3,237-8Zm1320,5c0-1-53-55-118-120l-117-117-120,120-120,120h238c130,0,237-1,237-3Zm650,0c0-1-53-55-118-120l-117-117-120,120-120,120h238c130,0,237-1,237-3Zm-1300-10c0-1-53-55-118-120l-117-117-120,120-120,120h238c130,0,237-1,237-3Zm-2580-307v-260h-262-263l260,260c143,143,261,260,262,260c2,0,3-117,3-260Zm200,145l115-115-123-123-122-122v238c0,130,3,237,8,237c4,0,59-52,122-115Zm460-122v-238l-122,122-123,123l115,115c63,63,118,115,122,115c5,0,8-107,8-237Zm200,122l115-115-123-123-122-122v238c0,130,3,237,8,237c4,0,59-52,122-115Zm450-117v-233l-117,117-118,118l115,115c63,63,116,115,117,115c2,0,3-105,3-232Zm310-3c0-6-52-62-115-125l-115-115v240v240l115-115c63-63,115-119,115-125Zm345-223c-3-4-57,45-120,108l-115,115l117,118l118,117l3-226c1-125,0-229-3-232Zm1315,226v-233l-117,117-118,118l115,115c63,63,116,115,117,115c2,0,3-105,3-232Zm197-115l-117-118v235v235l117-118l118-117-118-117Zm463,110v-238l-120,120-120,120l117,117c65,65,119,118,120,118c2,0,3-107,3-237Zm-1760,112l115-115-123-123-122-122v238c0,130,3,237,8,237c4,0,59-52,122-115Zm450-117v-233l-117,117-118,118l115,115c63,63,116,115,117,115c2,0,3-105,3-232Zm203,114l107-107-110-110-110-110v218c0,119,1,217,3,217c1,0,51-48,110-108Zm-2343-277l115-115h-240-240l115,115c63,63,119,115,125,115s62-52,125-115Zm660,0l115-115h-240-240l115,115c63,63,119,115,125,115s62-52,125-115Zm650,0l115-115h-235-235l115,115c63,63,117,115,120,115s57-52,120-115Zm1310,0l115-115h-235-235l115,115c63,63,117,115,120,115s57-52,120-115Zm660,0l115-115h-235-235l115,115c63,63,117,115,120,115s57-52,120-115Zm-1305-5l110-110h-230-230l110,110c60,61,114,110,120,110s60-49,120-110Zm-8-317l-117-118-117,118-118,117h235h235l-118-117Zm-284-51l117-117-120-120-120-120v238c0,130,1,237,3,237c1,0,55-53,120-118Zm467-122c0-126-3-230-8-230-4,0-59,52-122,115l-115,115l115,115c63,63,118,115,122,115c5,0,8-103,8-230Zm-175-170l120-120h-240-240l120,120c66,66,120,120,120,120s54-54,120-120Zm-2-312l-123-123-115,115c-63,63-115,118-115,122c0,5,107,8,237,8h238l-122-122Zm-290-56l117-117-120-120-120-120v238c0,130,1,237,3,237c1,0,55-53,120-118Zm467-117c0-129-3-235-7-235-12,0-233,223-233,235c0,11,221,235,232,235c5,0,8-106,8-235Zm-183-167c62-62,113-116,113-120c0-5-103-8-230-8-126,0-230,3-230,7c0,8,222,233,230,233c2,0,55-51,117-112Zm123-201c0-1-53-55-118-120l-117-117-120,120-120,120h238c130,0,237-1,237-3Zm-400-172l115-115-123-123-122-122v238c0,130,3,237,8,237c4,0,59-52,122-115Zm460-115c0-126-3-230-8-230-4,0-59,52-122,115l-115,115l115,115c63,63,118,115,122,115c5,0,8-103,8-230Zm-170-175l115-115h-240-240l115,115c63,63,119,115,125,115s62-52,125-115Zm-13-312l-117-118-117,118-118,117h235h235l-118-117Zm-284-51l117-117-120-120-120-120v238c0,130,1,237,3,237c1,0,55-53,120-118Zm467-122c0-126-3-230-8-230-4,0-59,52-122,115l-115,115l115,115c63,63,118,115,122,115c5,0,8-103,8-230Zm-175-170l120-120h-240-240l120,120c66,66,120,120,120,120s54-54,120-120Zm-2-312l-123-123-115,115c-63,63-115,118-115,122c0,5,107,8,237,8h238l-122-122Zm-290-56l117-117-120-120-120-120v238c0,130,1,237,3,237c1,0,55-53,120-118Zm467-117c0-129-3-235-7-235-12,0-233,223-233,235c0,11,221,235,232,235c5,0,8-106,8-235Zm-183-167c62-62,113-116,113-120c0-5-103-8-230-8-126,0-230,3-230,7c0,8,222,233,230,233c2,0,55-51,117-112Zm123-201c0-1-53-55-118-120l-117-117-120,120-120,120h238c130,0,237-1,237-3Zm-408-409l-122-123v245v245l122-123l123-122-123-122Zm468,122c0-126-3-230-8-230-4,0-59,52-122,115l-115,115l115,115c63,63,118,115,122,115c5,0,8-103,8-230Zm-5355-40h1462l11-25c9-20,9-27-1-30-14-4-835-127-857-127-8-1-80,9-160,22-140,22-147,23-203,6-70-20-141-81-169-143-20-45-268-1446-268-1513c0-97,78-209,170-243c64-24,2459-437,2531-437c68,0,114,16,169,60c75,60,79,73,207,820c139,809,127,810,142-5c14-756,1-1229-49-1795-11-124-24-274-29-335-15-168-50-243-134-287-37-19-66-23-227-30-160-6-3489-27-4592-28h-388v1171c0,644-2,1175-5,1180-9,13-49,11-63-3-8-8-12-46-12-105v-93h-330-330v89c0,109-4,121-40,121-16,0-30-7-34-16-3-9-6-465-6-1015v-999h-40c-53,0-80-27-80-78c0-55,31-85,81-80l39,4v-83-83h-108c-104,0-110,1-155,31-67,44-119,119-124,177-4,50-37,1165-53,1782-13,491-13,1460,0,1725c11,228,21,273,69,319c62,60,13,57,1110,51c552-3,1662-5,2466-5Zm2880-19c50-22,91-69,105-119c12-42,29-592,18-592-4,0-10,9-13,21-11,35-66,89-115,114-27,13-99,33-171,45-68,13-126,26-129,30s-197,107-432,230l-427,222l27,34l27,34h535c497,0,538-2,575-19Zm2305-116l115-115h-240-240l115,115c63,63,119,115,125,115s62-52,125-115Zm-3123-162c209-109,376-199,370-201-12-2-1678,286-1683,291-2,1,164,28,369,58c297,45,391,56,467,53l95-3l382-198Zm-480-117c1017-177,1240-218,1275-238c49-27,97-98,105-154c6-47-241-1474-262-1515-8-15-33-43-56-62-82-70,8-81-1373,159-681,118-1253,221-1270,228-69,30-125,114-126,189c0,21,56,360,124,753c99,566,129,722,146,750c39,62,105,101,175,103c17,1,584-95,1262-213Zm3590-33l-117-118-117,118-118,117h235h235l-118-117Zm-284-51l117-117-120-120-120-120v238c0,130,1,237,3,237c1,0,55-53,120-118Zm467-122c0-126-3-230-8-230-4,0-59,52-122,115l-115,115l115,115c63,63,118,115,122,115c5,0,8-103,8-230Zm-175-170l120-120h-240-240l120,120c66,66,120,120,120,120s54-54,120-120Zm-2-312l-123-123-115,115c-63,63-115,118-115,122c0,5,107,8,237,8h238l-122-122Zm-290-56l117-117-120-120-120-120v238c0,130,1,237,3,237c1,0,55-53,120-118Zm467-117c0-129-3-235-7-235-12,0-233,223-233,235c0,11,221,235,232,235c5,0,8-106,8-235Zm-180-170l115-115h-235-235l115,115c63,63,117,115,120,115s57-52,120-115Zm10-386c-69-65-127-119-130-119s-59,54-125,120l-120,120l250-1h250l-125-120Zm-287-68l107-106-112-112c-62-62-118-113-125-113-10,0-13,51-13,231c0,219,1,231,18,218c9-7,65-60,125-118Zm452-329c-3-4-57,45-120,108l-115,115l117,118l118,117l3-226c1-125,0-229-3-232Zm-7815,63v-145h-330-330v138c0,76,3,142,7,145c3,4,152,7,330,7h323v-145Zm7611,24c49-45,89-86,89-90c0-5-79-9-175-9s-175,3-175,7c0,8,161,173,168,173c2,0,44-37,93-81Zm-262-340c64-61,116-114,116-118c0-3-55-60-123-125l-122-120v237c0,130,3,237,6,237s58-50,123-111Zm266,21l-89-90-87,83c-47,45-87,85-88,90c0,4,79,7,176,7h178l-90-90Zm203-255l-3-115-120,115-120,115l120,116l120,117l3-117c1-64,1-168,0-231ZM6600,8830v-140h-330-330v140v140h330h330v-140Zm7645-240l120-120h-245l-245,1l125,119c69,66,125,119,125,120c0,0,54-54,120-120ZM6600,8465v-145h-330-330v138c0,76,3,142,7,145c3,4,152,7,330,7h323v-145Zm7646-190c-65-63-121-115-125-115-3,0-58,52-121,115l-115,115h240l240-1-119-114Zm-263-85l87-85-117-117c-65-65-121-118-125-118-5,0-8,107-8,237v237l38-34c20-19,76-73,125-120Zm435-199l-3-120-118,116-118,116l118,119l118,118l3-114c1-63,1-169,0-235ZM6600,8100v-140h-330-330v140v140h330h330v-140Zm7641-162c65-61,119-115,119-120c0-4-109-8-242-8h-243l120,120c66,66,121,120,123,120s57-50,123-112ZM6600,7737v-143l-330-1-330-2v138c0,76,3,141,7,144c3,4,152,7,330,7h323v-143Zm7758-6c-1-5-55-59-120-120l-116-111-124,120-123,119l243,1c140,0,242-4,240-9Zm-405-169l117-117-62-60c-35-33-91-87-125-120l-63-59v237c0,130,3,237,8,237c4,0,60-53,125-118Zm467-119v-238l-122,122-123,123l120,114c66,63,121,115,123,115c1,1,2-106,2-236Zm-8330,43c18-49,87-62,127-24c13,12,23,27,23,35c0,10,23,13,95,13c67,0,95-4,95-12c0-23,43-58,72-58c39,0,65,15,82,48c14,25,15,18,16-96v-122l-327,2-328,3-3,118-3,117h71c66,0,71-2,80-24Zm-860-156v-100l-562,2-563,3-3,75c-2,41,0,85,3,97l5,23h560h560v-100Zm9025-60l120-120h-250-250l120,120c66,66,124,120,130,120s64-54,130-120ZM8158,7095c3-131-17-273-56-388l-27-82-307-5-306-5-27-25c-56-51-68-119-35-185c11-22,20-41,20-42c0-2-169-3-376-3-339,0-376,2-370,16c3,9,6,200,6,425v409l738-2l737-3l3-110Zm1131-21c11-113,51-363,67-421l6-23h-600-600l20,63c34,109,48,198,55,355l6,152h517h517l12-126Zm-4139,84c0-24-131-694-140-715l-10-23h-334c-255,0-336,3-343,13-10,12-143,684-143,720c0,16,30,17,485,17c359,0,485-3,485-12Zm1450-153v-145h-330-330v145v145h330h330v-145Zm7759,8c-1-5-54-58-118-120l-116-112-125,119-125,119h243c133,1,241-2,241-6Zm-411-166l122-123-125-117-125-118v240c0,133,1,241,3,241c1,0,57-55,125-123Zm470-234l-3-118-120,118-120,118l120,113l120,114l3-114c1-63,1-167,0-231Zm-7818-24c0-112,4-198,10-210c10-19,4-19-342-19-274,0-349,3-340,12s12,69,12,210v198h330h330v-191Zm7650-34l115-115h-244-243l118,115c66,63,124,114,129,115c6,0,62-52,125-115Zm-4217-4c4-1,15-16,24-35c18-39,12-77-17-106-20-20-39-20-1281-20-814,0-1267,4-1279,10-43,23-45,114-4,144c10,8,387,11,1282,10c697-1,1270-2,1275-3Z" transform="translate(-100 0)"/></g><line x1="-100.398255" y1="0" x2="99.601745" y2="0" transform="matrix(2.510954 0 0-1 1116.0954 404.034014)" fill="none" stroke="#000" stroke-width="15" stroke-linecap="square" stroke-linejoin="round"/><line x1="-1" y1="11.208654" x2="-1" y2="-11.208654" transform="matrix(1 0 0 0.729169 706.955172 566.660242)" fill="none" stroke="#000" stroke-width="3" stroke-linecap="round"/><line x1="-19.703027" y1="0" x2="16.841797" y2="0" transform="matrix(.699 0 0 1 719.727588 574.868896)" fill="none" stroke="#000" stroke-width="3" stroke-linecap="round"/><path d="" transform="translate(-194-99)" fill="none" stroke="#3f5787" stroke-width="4"/><line x1="-1" y1="-3.196143" x2="-1" y2="2.803857" transform="translate(707.455176 535.444776)" fill="none" stroke="#000" stroke-width="3" stroke-linecap="round"/><line x1="-1" y1="-3.196143" x2="-1" y2="3.803857" transform="translate(707.455176 614.444776)" fill="none" stroke="#000" stroke-width="3" stroke-linecap="round"/><line x1="0.003003" y1="-2.196148" x2="0.003003" y2="3.803852" transform="matrix(-.003003 0.999995-.999995-.003003 668.455176 574.444776)" fill="none" stroke="#000" stroke-width="3" stroke-linecap="round"/><line x1="0.003003" y1="-2.196148" x2="0.003003" y2="3.803852" transform="matrix(-.003003 0.999995-.999995-.003003 746.455176 574.444776)" fill="none" stroke="#000" stroke-width="3" stroke-linecap="round"/><line x1="0.686747" y1="-2.469247" x2="0.686747" y2="3.530753" transform="matrix(-.686747 0.726896-.726896-.686747 734.530709 601.369244)" fill="none" stroke="#000" stroke-width="3" stroke-linecap="round"/><g transform="translate(0-.999999)"><line x1="0.527345" y1="-2.189043" x2="0.527345" y2="3.810957" transform="matrix(-.527345-.849651-.716818 0.444901 1072.878015 938.14698)" fill="none" stroke="#000" stroke-width="2" stroke-linecap="round"/><line x1="-0.604809" y1="-2.252196" x2="-0.604809" y2="3.747804" transform="matrix(.604809-.796371-.671867-.510253 1129.646713 937.763575)" fill="none" stroke="#000" stroke-width="2" stroke-linecap="round"/><line x1="0.01188" y1="-2.010916" x2="0.01188" y2="3.989084" transform="matrix(-.01188-.999929-.843601 0.010022 1070.336089 928.285025)" fill="none" stroke="#000" stroke-width="2" stroke-linecap="round"/><line x1="-0.078992" y1="-2.014537" x2="-0.078992" y2="3.985463" transform="matrix(.078992-.996875-.841025-.066642 1132.672056 928.345159)" fill="none" stroke="#000" stroke-width="2" stroke-linecap="round"/><line x1="-0.032672" y1="-2.011466" x2="-0.032672" y2="3.988534" transform="matrix(.032672-.999466-.843211-.027564 1070.334993 917.593612)" fill="none" stroke="#000" stroke-width="2" stroke-linecap="round"/><line x1="0.129017" y1="-2.020739" x2="0.129017" y2="3.979261" transform="matrix(-.129017-.991642-.83661 0.108846 1132.334993 917.593612)" fill="none" stroke="#000" stroke-width="2" stroke-linecap="round"/><line x1="-0.440494" y1="-2.132024" x2="-0.440494" y2="3.867976" transform="matrix(.440494-.897756-.757401-.371627 1074.03591 906.610747)" fill="none" stroke="#000" stroke-width="2" stroke-linecap="round"/><line x1="0.475633" y1="-2.153492" x2="0.475633" y2="3.846508" transform="matrix(-.475633-.879644-.742121 0.401273 1129.843696 906.851282)" fill="none" stroke="#000" stroke-width="2" stroke-linecap="round"/><rect width="64.932964" height="103.332555" rx="0" ry="0" transform="matrix(.463709 0 0 0.458408 1086.982321 901.568757)" fill="none" stroke="#000" stroke-width="10" stroke-linecap="round" stroke-linejoin="round"/></g><line x1="-0.729122" y1="-2.511759" x2="-0.729122" y2="3.488241" transform="matrix(.729122 0.684384-.684384 0.729122 733.666585 546.369244)" fill="none" stroke="#000" stroke-width="3" stroke-linecap="round"/><line x1="0.578266" y1="-2.380295" x2="0.578266" y2="3.619705" transform="matrix(-.578266 0.815848-.815848-.578266 676.666585 548.369244)" fill="none" stroke="#000" stroke-width="3" stroke-linecap="round"/><line x1="-0.663984" y1="-2.448396" x2="-0.663984" y2="3.551604" transform="matrix(.663984 0.747747-.747747 0.663984 678.666585 603.369244)" fill="none" stroke="#000" stroke-width="3" stroke-linecap="round"/><line x1="-16.786748" y1="-48.07025" x2="14.787247" y2="48.115001" transform="matrix(.99975 0.022375-.022375 0.99975 1372.541006 1220.092626)" fill="none" stroke="#000" stroke-width="3"/><line x1="13.820446" y1="-48.092625" x2="-15.820447" y2="48.092625" transform="translate(1308.446737 1217.698222)" fill="none" stroke="#000" stroke-width="3"/></svg>
